# File created by Blade
# Date/Time:  Tue Jan 27 19:05:11 2015
#---------------------------------------------------------
:version 1.10
:name HOM
:units
  mass 1.0
  length 1.000000
  angle deg
:documentation
     Acclaim Skeleton File
:root
   axis xyz
   order TX TY TZ RX RY RZ
   position 0.000000 0.000000 0.000000
   orientation 0 0 0
:bonedata
   begin
      id 1
      name Spine_dum
      direction 0.000000 1.000000 0.000000
      length 5.195262
      axis 0.0 0.0 0.0 xyz
   end
   begin
      id 2
      name LeftUpLeg_dum
      direction 1.000000 0.000000 0.000000
      length 3.351363
      axis 0.0 0.0 0.0 xyz
   end
   begin
      id 3
      name RightUpLeg_dum
      direction -1.000000 0.000000 0.000000
      length 3.351363
      axis 0.0 0.0 0.0 xyz
   end
   begin
      id 4
      name Spine
      direction 0.000000 1.000000 0.000000
      length 0.000000
      axis 0.0 0.0 0.0 xyz
      dof rx ry rz
   end
   begin
      id 5
      name Spine_dum1
      direction 0.000000 1.000000 0.000000
      length 15.653875
      axis 0.0 0.0 0.0 xyz
   end
   begin
      id 6
      name Spine_dum2
      direction 0.000000 1.000000 0.000000
      length 10.329768
      axis 0.0 0.0 0.0 xyz
   end
   begin
      id 7
      name Spine_dum3
      direction 0.000000 1.000000 0.000000
      length 10.329768
      axis 0.0 0.0 0.0 xyz
   end
   begin
      id 8
      name Head
      direction 0.000000 1.000000 0.000000
      length 4.527550
      axis 0.0 0.0 0.0 xyz
      dof rx ry rz
   end
   begin
      id 9
      name LeftShoulder
      direction 1.000000 0.000000 0.000000
      length 6.996006
      axis 0.0 0.0 -90.0 xyz
      dof rx ry rz
   end
   begin
      id 10
      name LeftArm
      direction 1.000000 0.000000 0.000000
      length 10.209302
      axis 0.0 0.0 -90.0 xyz
      dof rx ry rz
   end
   begin
      id 11
      name LeftForeArm
      direction 1.000000 0.000000 0.000000
      length 8.563163
      axis 0.0 0.0 -90.0 xyz
      dof ry rz rx
   end
   begin
      id 12
      name LeftHand
      direction 0.000000 0.000000 0.000000
      length 0.000000
      axis 0.0 0.0 -90.0 xyz
      dof rx ry rz
   end
   begin
      id 13
      name LeftHand_dum1
      direction 0.000000 0.000000 0.000000
      length 0.000000
      axis 0.0 0.0 -90.0 xyz
   end
   begin
      id 14
      name LeftHand_dum2
      direction 1.000000 0.000000 0.000000
      length 3.937000
      axis 0.0 0.0 -90.0 xyz
   end
   begin
      id 15
      name LeftHandThumb1
      direction 0.000000 0.000000 1.000000
      length 3.937000
      axis 0.0 0.0 -90.0 xyz
      dof rx rz ry
   end
   begin
      id 16
      name RightShoulder
      direction -1.000000 0.000000 0.000000
      length 6.996006
      axis 0.0 0.0 90.0 xyz
      dof rx ry rz
   end
   begin
      id 17
      name RightArm
      direction -1.000000 0.000000 0.000000
      length 10.209302
      axis 0.0 0.0 90.0 xyz
      dof rx ry rz
   end
   begin
      id 18
      name RightForeArm
      direction -1.000000 0.000000 0.000000
      length 8.563163
      axis 0.0 0.0 90.0 xyz
      dof ry rz rx
   end
   begin
      id 19
      name RightHand
      direction 0.000000 0.000000 0.000000
      length 0.000000
      axis 0.0 0.0 90.0 xyz
      dof rx ry rz
   end
   begin
      id 20
      name RightHand_dum1
      direction 0.000000 0.000000 0.000000
      length 0.000000
      axis 0.0 0.0 90.0 xyz
   end
   begin
      id 21
      name RightHand_dum2
      direction -1.000000 0.000000 0.000000
      length 3.937000
      axis 0.0 0.0 90.0 xyz
   end
   begin
      id 22
      name RightHandThumb1
      direction 0.000000 0.000000 1.000000
      length 3.937000
      axis 0.0 0.0 90.0 xyz
      dof rx rz ry
   end
   begin
      id 23
      name LeftUpLeg
      direction 0.000000 -1.000000 0.000000
      length 16.346831
      axis 0.0 0.0 0.0 xyz
      dof rx ry rz
   end
   begin
      id 24
      name LeftLeg
      direction 0.000000 -1.000000 0.000000
      length 13.959795
      axis 0.0 0.0 0.0 xyz
      dof rx ry rz
   end
   begin
      id 25
      name LeftFoot
      direction 0.000000 -0.258819 0.965926
      length 5.165550
      axis 15.0 0.0 0.0 xyz
      dof rx ry rz
   end
   begin
      id 26
      name LeftToeBase
      direction 0.000000 0.000000 1.000000
      length 2.952750
      axis 0.0 0.0 0.0 xyz
      dof rx ry rz
   end
   begin
      id 27
      name RightUpLeg
      direction 0.000000 -1.000000 0.000000
      length 16.346831
      axis 0.0 0.0 0.0 xyz
      dof rx ry rz
   end
   begin
      id 28
      name RightLeg
      direction 0.000000 -1.000000 0.000000
      length 13.959795
      axis 0.0 0.0 0.0 xyz
      dof rx ry rz
   end
   begin
      id 29
      name RightFoot
      direction 0.000000 -0.258819 0.965926
      length 5.165550
      axis 15.0 0.0 0.0 xyz
      dof rx ry rz
   end
   begin
      id 30
      name RightToeBase
      direction 0.000000 0.000000 1.000000
      length 2.952750
      axis 0.0 0.0 0.0 xyz
      dof rx ry rz
   end
:hierarchy
   begin
      root Spine_dum LeftUpLeg_dum RightUpLeg_dum
      Spine_dum Spine
      LeftUpLeg_dum LeftUpLeg
      RightUpLeg_dum RightUpLeg
      Spine Spine_dum1 Spine_dum2 Spine_dum3
      Spine_dum1 Head
      Spine_dum2 LeftShoulder
      Spine_dum3 RightShoulder
      LeftShoulder LeftArm
      LeftArm LeftForeArm
      LeftForeArm LeftHand
      LeftHand LeftHand_dum1 LeftHand_dum2
      LeftHand_dum1 LeftHandThumb1
      RightShoulder RightArm
      RightArm RightForeArm
      RightForeArm RightHand
      RightHand RightHand_dum1 RightHand_dum2
      RightHand_dum1 RightHandThumb1
      LeftUpLeg LeftLeg
      LeftLeg LeftFoot
      LeftFoot LeftToeBase
      RightUpLeg RightLeg
      RightLeg RightFoot
      RightFoot RightToeBase
   end

# File created by Blade
# Date/Time:  Tue Jan 27 19:05:02 2015
# Frame Rate: 120.000 fps
#------------------------------------------------------
:FULLY-SPECIFIED
:DEGREES
492
root -3.215176 31.521084 -4.582511 7.478506 28.751296 3.988872
Spine -4.334006 -7.726812 -6.064096
Head 15.956042 1.101290 0.785403
LeftShoulder -18.400429 14.125618 12.716752
LeftArm 21.236320 -39.389417 -73.923989
LeftForeArm -13.599487 -0.000000 81.445853
LeftHand -9.206327 0.000000 19.838685
LeftHandThumb1 -26.253704 0.000000 33.147579
RightShoulder -13.398941 -4.141540 -12.130080
RightArm 5.827261 -34.081656 88.711713
RightForeArm -23.132840 -0.000000 24.516623
RightHand -15.143503 -0.000000 8.997849
RightHandThumb1 -24.326973 -0.000000 -32.862282
LeftUpLeg -7.332006 -24.577024 -8.332123
LeftLeg 16.601659 -0.000000 -0.000000
LeftFoot -20.190962 13.888266 -8.236940
LeftToeBase 9.859207 -0.000000 -0.000000
RightUpLeg -23.974262 16.420201 -4.463893
RightLeg 77.946631 -0.000000 -0.000000
RightFoot -5.456473 -9.079155 12.897654
RightToeBase -1.508853 -0.000000 0.000000
493
root -3.209628 31.515476 -4.575007 7.536566 28.695623 4.049512
Spine -4.418980 -7.649776 -6.056425
Head 15.914467 1.075264 0.703118
LeftShoulder -18.403629 14.160417 12.675366
LeftArm 21.125367 -39.330778 -73.793035
LeftForeArm -13.659358 -0.000000 81.499201
LeftHand -9.267644 -0.000000 19.794882
LeftHandThumb1 -26.253704 0.000000 33.147579
RightShoulder -13.396976 -4.141239 -12.172454
RightArm 5.810383 -34.123880 88.735869
RightForeArm -23.047149 -0.000000 24.321146
RightHand -15.139490 0.000000 8.851370
RightHandThumb1 -24.326973 -0.000000 -32.862282
LeftUpLeg -7.322870 -24.640439 -8.395309
LeftLeg 16.565630 -0.000000 -0.000000
LeftFoot -20.210030 14.012313 -8.190180
LeftToeBase 9.770326 -0.000000 -0.000000
RightUpLeg -23.761240 16.415605 -4.534318
RightLeg 78.011799 -0.000000 -0.000000
RightFoot -5.501364 -9.134972 12.818796
RightToeBase -1.220349 -0.000000 0.000000
494
root -3.203311 31.509633 -4.566950 7.583969 28.644745 4.109883
Spine -4.493180 -7.598272 -6.040780
Head 15.876169 1.100168 0.623315
LeftShoulder -18.400635 14.146219 12.637410
LeftArm 20.896107 -39.260192 -73.568300
LeftForeArm -13.722614 -0.000000 81.563433
LeftHand -9.289837 -0.000000 19.754106
LeftHandThumb1 -26.253704 0.000000 33.147579
RightShoulder -13.377083 -4.135005 -12.234932
RightArm 5.771795 -34.156162 88.771534
RightForeArm -23.017500 -0.000000 24.156039
RightHand -15.095013 0.000000 8.916587
RightHandThumb1 -24.326973 -0.000000 -32.862282
LeftUpLeg -7.305617 -24.730855 -8.466934
LeftLeg 16.535404 -0.000000 -0.000000
LeftFoot -20.251141 14.174033 -8.195646
LeftToeBase 9.735425 -0.000000 -0.000000
RightUpLeg -23.534248 16.392452 -4.602731
RightLeg 78.073479 -0.000000 -0.000000
RightFoot -5.548861 -9.204759 12.855076
RightToeBase -1.112164 -0.000000 0.000000
495
root -3.197246 31.504442 -4.559236 7.631493 28.588040 4.155581
Spine -4.577358 -7.545896 -6.010242
Head 15.835773 1.110984 0.542221
LeftShoulder -18.421830 14.167931 12.585285
LeftArm 20.736320 -39.207092 -73.384894
LeftForeArm -13.820468 -0.000000 81.617567
LeftHand -9.375285 -0.000000 19.602418
LeftHandThumb1 -26.253704 0.000000 33.147579
RightShoulder -13.344373 -4.084574 -12.281953
RightArm 5.704142 -34.222396 88.792644
RightForeArm -22.988197 -0.000000 23.948204
RightHand -15.035525 -0.000000 9.054124
RightHandThumb1 -24.326973 -0.000000 -32.862282
LeftUpLeg -7.301302 -24.841834 -8.521111
LeftLeg 16.511563 -0.000000 -0.000000
LeftFoot -20.266906 14.363856 -8.166952
LeftToeBase 9.638305 -0.000000 -0.000000
RightUpLeg -23.309253 16.378097 -4.664401
RightLeg 78.141717 -0.000000 -0.000000
RightFoot -5.549413 -9.252354 12.905448
RightToeBase -1.353119 -0.000000 0.000000
496
root -3.191760 31.499304 -4.552207 7.677538 28.523324 4.199989
Spine -4.653991 -7.466270 -5.980287
Head 15.781254 1.095030 0.448886
LeftShoulder -18.424517 14.195842 12.540502
LeftArm 20.602480 -39.158562 -73.229466
LeftForeArm -13.868912 0.000000 81.648417
LeftHand -9.414849 -0.000000 19.498129
LeftHandThumb1 -26.253704 0.000000 33.147579
RightShoulder -13.342963 -4.083776 -12.317982
RightArm 5.708073 -34.333550 88.762321
RightForeArm -22.901200 0.000000 23.740772
RightHand -15.026217 -0.000000 9.109365
RightHandThumb1 -24.326973 -0.000000 -32.862282
LeftUpLeg -7.301929 -24.952595 -8.576729
LeftLeg 16.499207 -0.000000 -0.000000
LeftFoot -20.301557 14.549343 -8.175225
LeftToeBase 9.613220 -0.000000 -0.000000
RightUpLeg -23.087232 16.365847 -4.725207
RightLeg 78.229474 -0.000000 -0.000000
RightFoot -5.816183 -9.201706 13.373398
RightToeBase -0.278290 -0.000000 0.000000
497
root -3.186995 31.494195 -4.547702 7.741778 28.448484 4.228729
Spine -4.752505 -7.405971 -5.922203
Head 15.710587 1.114307 0.352492
LeftShoulder -18.469004 14.242440 12.456900
LeftArm 20.530989 -39.137373 -73.091979
LeftForeArm -13.845349 -0.000000 81.667563
LeftHand -9.586192 0.000000 19.347949
LeftHandThumb1 -26.253704 0.000000 33.147579
RightShoulder -13.317679 -4.093216 -12.365661
RightArm 5.715767 -34.327843 88.747730
RightForeArm -22.991762 -0.000000 23.541219
RightHand -15.003399 0.000000 9.355912
RightHandThumb1 -24.326973 -0.000000 -32.862282
LeftUpLeg -7.344886 -25.083999 -8.605280
LeftLeg 16.502209 -0.000000 -0.000000
LeftFoot -20.332924 14.784043 -8.152164
LeftToeBase 9.521993 -0.000000 -0.000000
RightUpLeg -22.888646 16.372853 -4.774589
RightLeg 78.316454 -0.000000 -0.000000
RightFoot -5.711461 -9.371373 13.213281
RightToeBase -0.809052 -0.000000 0.000000
